<?xml version="1.0" encoding="UTF-8"?>
<svg class="" width="512" height="512" enable-background="new 0 0 512 512" version="1.1" viewBox="0 0 507.2 507.2" xml:space="preserve" xmlns="http://www.w3.org/2000/svg">
<circle class="" cx="253.6" cy="253.6" r="253.6" fill="#f15249" style="" data-original="#f15249" xmlns="http://www.w3.org/2000/svg"/>
<path class="" d="M147.2,368L284,504.8c115.2-13.6,206.4-104,220.8-219.2L367.2,148L147.2,368z" fill="#ad0e0e" style="" data-original="#ad0e0e" xmlns="http://www.w3.org/2000/svg"/>
<path d="m373.6 309.6c11.2 11.2 11.2 30.4 0 41.6l-22.4 22.4c-11.2 11.2-30.4 11.2-41.6 0l-176-176c-11.2-11.2-11.2-30.4 0-41.6l23.2-23.2c11.2-11.2 30.4-11.2 41.6 0l175.2 176.8z" fill="#fff" style="" data-original="#ffffff" xmlns="http://www.w3.org/2000/svg"/>
<path class="" d="m280.8 216l-64.8 64.8 93.6 92.8c11.2 11.2 30.4 11.2 41.6 0l23.2-23.2c11.2-11.2 11.2-30.4 0-41.6l-93.6-92.8z" fill="#d6d6d6" style="" data-original="#d6d6d6" xmlns="http://www.w3.org/2000/svg"/>
<path d="m309.6 133.6c11.2-11.2 30.4-11.2 41.6 0l23.2 23.2c11.2 11.2 11.2 30.4 0 41.6l-176.8 175.2c-11.2 11.2-30.4 11.2-41.6 0l-22.4-22.4c-11.2-11.2-11.2-30.4 0-41.6l176-176z" fill="#fff" style="" data-original="#ffffff" xmlns="http://www.w3.org/2000/svg"/>
</svg>
