<svg width="24" height="24" xmlns="http://www.w3.org/2000/svg" data-name="Layer 1">
 <title>spam, trash, close, garbage, delete</title>

 <g>
  <title>Layer 1</title>
  <path fill="#ffffff" id="svg_1" d="m2.88,5l2.23,19l13.78,0l2.23,-19l-18.24,0zm14.23,17l-10.22,0l-1.77,-15l13.76,0l-1.77,15z"/>
  <polygon fill="#ffffff" id="svg_2" points="21 2 15 2 15 1 13 1 13 0 11 0 11 1 9 1 9 2 3 2 3 4 21 4 21 2"/>
  <polygon fill="#ffffff" id="svg_3" points="10.23 17.66 12 15.89 13.77 17.66 15.18 16.24 13.41 14.47 15.18 12.71 13.77 11.29 12 13.06 10.23 11.29 8.82 12.71 10.59 14.47 8.82 16.24 10.23 17.66"/>
 </g>
</svg>