<svg xmlns="http://www.w3.org/2000/svg" xmlns:xlink="http://www.w3.org/1999/xlink" width="800" zoomAndPan="magnify" viewBox="0 0 600 599.999999" height="800" preserveAspectRatio="xMidYMid meet" version="1.0"><defs><clipPath id="ac0530f100"><path d="M 12 61 L 590.78125 61 L 590.78125 538 L 12 538 Z M 12 61 " clip-rule="nonzero"/></clipPath></defs><g clip-path="url(#ac0530f100)"><path fill="#ffffff" d="M 553.039062 136.785156 L 49.789062 136.785156 C 48.554688 136.785156 47.320312 136.726562 46.089844 136.605469 C 44.859375 136.484375 43.640625 136.300781 42.425781 136.058594 C 41.214844 135.820312 40.015625 135.519531 38.835938 135.160156 C 37.652344 134.800781 36.488281 134.386719 35.347656 133.914062 C 34.203125 133.441406 33.089844 132.914062 32 132.332031 C 30.910156 131.75 29.847656 131.113281 28.820312 130.429688 C 27.792969 129.742188 26.800781 129.007812 25.847656 128.222656 C 24.890625 127.4375 23.976562 126.609375 23.101562 125.738281 C 22.226562 124.863281 21.398438 123.949219 20.613281 122.992188 C 19.832031 122.039062 19.09375 121.046875 18.40625 120.019531 C 17.722656 118.992188 17.085938 117.933594 16.503906 116.84375 C 15.921875 115.753906 15.394531 114.640625 14.921875 113.5 C 14.445312 112.355469 14.03125 111.195312 13.671875 110.011719 C 13.3125 108.832031 13.011719 107.632812 12.773438 106.421875 C 12.53125 105.210938 12.351562 103.988281 12.230469 102.761719 C 12.109375 101.53125 12.046875 100.296875 12.046875 99.0625 C 12.046875 97.828125 12.109375 96.59375 12.230469 95.363281 C 12.351562 94.136719 12.53125 92.914062 12.773438 91.703125 C 13.011719 90.492188 13.3125 89.292969 13.671875 88.113281 C 14.03125 86.929688 14.445312 85.769531 14.921875 84.625 C 15.394531 83.484375 15.921875 82.371094 16.503906 81.28125 C 17.085938 80.191406 17.722656 79.132812 18.40625 78.105469 C 19.09375 77.078125 19.832031 76.085938 20.613281 75.132812 C 21.398438 74.175781 22.226562 73.261719 23.101562 72.386719 C 23.976562 71.515625 24.890625 70.6875 25.847656 69.902344 C 26.800781 69.117188 27.792969 68.382812 28.820312 67.695312 C 29.847656 67.011719 30.910156 66.375 32 65.792969 C 33.089844 65.210938 34.203125 64.683594 35.347656 64.210938 C 36.488281 63.738281 37.652344 63.324219 38.835938 62.964844 C 40.015625 62.605469 41.214844 62.304688 42.425781 62.0625 C 43.640625 61.824219 44.859375 61.640625 46.089844 61.519531 C 47.320312 61.398438 48.554688 61.339844 49.789062 61.339844 L 553.039062 61.339844 C 554.273438 61.339844 555.507812 61.398438 556.738281 61.519531 C 557.96875 61.640625 559.1875 61.824219 560.402344 62.0625 C 561.613281 62.304688 562.8125 62.605469 563.992188 62.964844 C 565.175781 63.324219 566.339844 63.738281 567.480469 64.210938 C 568.625 64.683594 569.738281 65.210938 570.828125 65.792969 C 571.917969 66.375 572.980469 67.011719 574.007812 67.695312 C 575.035156 68.382812 576.027344 69.117188 576.980469 69.902344 C 577.9375 70.6875 578.851562 71.515625 579.726562 72.386719 C 580.601562 73.261719 581.429688 74.175781 582.214844 75.132812 C 582.996094 76.085938 583.734375 77.078125 584.421875 78.105469 C 585.105469 79.132812 585.742188 80.191406 586.324219 81.28125 C 586.90625 82.371094 587.433594 83.484375 587.90625 84.625 C 588.378906 85.769531 588.796875 86.929688 589.15625 88.113281 C 589.515625 89.292969 589.816406 90.492188 590.054688 91.703125 C 590.296875 92.914062 590.476562 94.136719 590.597656 95.363281 C 590.71875 96.59375 590.78125 97.828125 590.78125 99.0625 C 590.78125 100.296875 590.71875 101.53125 590.597656 102.761719 C 590.476562 103.988281 590.296875 105.210938 590.054688 106.421875 C 589.816406 107.632812 589.515625 108.832031 589.15625 110.011719 C 588.796875 111.195312 588.378906 112.355469 587.90625 113.5 C 587.433594 114.640625 586.90625 115.753906 586.324219 116.84375 C 585.742188 117.933594 585.105469 118.992188 584.421875 120.019531 C 583.734375 121.046875 582.996094 122.039062 582.214844 122.992188 C 581.429688 123.949219 580.601562 124.863281 579.726562 125.738281 C 578.851562 126.609375 577.9375 127.4375 576.980469 128.222656 C 576.027344 129.007812 575.035156 129.742188 574.007812 130.429688 C 572.980469 131.113281 571.917969 131.75 570.828125 132.332031 C 569.738281 132.914062 568.625 133.441406 567.480469 133.914062 C 566.339844 134.386719 565.175781 134.800781 563.992188 135.160156 C 562.8125 135.519531 561.613281 135.820312 560.402344 136.058594 C 559.1875 136.300781 557.96875 136.484375 556.738281 136.605469 C 555.507812 136.726562 554.273438 136.785156 553.039062 136.785156 Z M 591.285156 298.742188 C 591.285156 297.507812 591.222656 296.273438 591.101562 295.046875 C 590.980469 293.816406 590.800781 292.59375 590.558594 291.382812 C 590.316406 290.171875 590.019531 288.972656 589.660156 287.792969 C 589.300781 286.609375 588.882812 285.449219 588.410156 284.304688 C 587.9375 283.164062 587.410156 282.050781 586.828125 280.960938 C 586.246094 279.871094 585.609375 278.8125 584.921875 277.785156 C 584.238281 276.757812 583.5 275.765625 582.71875 274.8125 C 581.933594 273.855469 581.105469 272.941406 580.230469 272.070312 C 579.355469 271.195312 578.441406 270.367188 577.484375 269.582031 C 576.53125 268.796875 575.539062 268.0625 574.511719 267.378906 C 573.480469 266.691406 572.421875 266.054688 571.332031 265.472656 C 570.242188 264.890625 569.125 264.363281 567.984375 263.890625 C 566.84375 263.417969 565.679688 263.003906 564.496094 262.644531 C 563.3125 262.285156 562.117188 261.984375 560.902344 261.746094 C 559.691406 261.503906 558.46875 261.324219 557.238281 261.203125 C 556.011719 261.082031 554.777344 261.019531 553.539062 261.019531 L 49.789062 261.019531 C 48.554688 261.019531 47.320312 261.082031 46.089844 261.203125 C 44.859375 261.324219 43.640625 261.503906 42.425781 261.746094 C 41.214844 261.984375 40.015625 262.285156 38.835938 262.644531 C 37.652344 263.003906 36.488281 263.417969 35.347656 263.890625 C 34.203125 264.363281 33.089844 264.890625 32 265.472656 C 30.910156 266.054688 29.847656 266.691406 28.820312 267.378906 C 27.792969 268.0625 26.800781 268.796875 25.847656 269.582031 C 24.890625 270.367188 23.976562 271.195312 23.101562 272.070312 C 22.226562 272.941406 21.398438 273.855469 20.613281 274.8125 C 19.832031 275.765625 19.09375 276.757812 18.40625 277.785156 C 17.722656 278.8125 17.085938 279.871094 16.503906 280.960938 C 15.921875 282.050781 15.394531 283.164062 14.921875 284.304688 C 14.445312 285.449219 14.03125 286.609375 13.671875 287.792969 C 13.3125 288.972656 13.011719 290.171875 12.773438 291.382812 C 12.53125 292.59375 12.351562 293.816406 12.230469 295.046875 C 12.109375 296.273438 12.046875 297.507812 12.046875 298.742188 C 12.046875 299.976562 12.109375 301.210938 12.230469 302.441406 C 12.351562 303.667969 12.53125 304.890625 12.773438 306.101562 C 13.011719 307.3125 13.3125 308.511719 13.671875 309.691406 C 14.03125 310.875 14.445312 312.035156 14.921875 313.179688 C 15.394531 314.320312 15.921875 315.433594 16.503906 316.523438 C 17.085938 317.613281 17.722656 318.671875 18.40625 319.699219 C 19.09375 320.726562 19.832031 321.71875 20.613281 322.671875 C 21.398438 323.628906 22.226562 324.542969 23.101562 325.417969 C 23.976562 326.289062 24.890625 327.117188 25.847656 327.902344 C 26.800781 328.6875 27.792969 329.421875 28.820312 330.109375 C 29.847656 330.792969 30.910156 331.429688 32 332.011719 C 33.089844 332.59375 34.203125 333.121094 35.347656 333.59375 C 36.488281 334.066406 37.652344 334.484375 38.835938 334.839844 C 40.015625 335.199219 41.214844 335.5 42.425781 335.742188 C 43.640625 335.980469 44.859375 336.164062 46.089844 336.285156 C 47.320312 336.40625 48.554688 336.464844 49.789062 336.464844 L 553.039062 336.464844 C 554.285156 336.480469 555.527344 336.4375 556.769531 336.332031 C 558.011719 336.222656 559.246094 336.054688 560.472656 335.828125 C 561.699219 335.597656 562.910156 335.308594 564.105469 334.960938 C 565.300781 334.613281 566.480469 334.207031 567.636719 333.738281 C 568.792969 333.273438 569.921875 332.753906 571.027344 332.175781 C 572.132812 331.597656 573.207031 330.96875 574.25 330.285156 C 575.292969 329.601562 576.296875 328.867188 577.265625 328.082031 C 578.234375 327.300781 579.164062 326.472656 580.050781 325.597656 C 580.9375 324.722656 581.78125 323.804688 582.578125 322.84375 C 583.375 321.886719 584.121094 320.890625 584.820312 319.859375 C 585.515625 318.824219 586.160156 317.761719 586.753906 316.664062 C 587.347656 315.566406 587.882812 314.445312 588.363281 313.296875 C 588.84375 312.144531 589.265625 310.976562 589.632812 309.785156 C 589.996094 308.59375 590.300781 307.386719 590.546875 306.164062 C 590.792969 304.941406 590.976562 303.710938 591.101562 302.472656 C 591.222656 301.230469 591.285156 299.988281 591.285156 298.742188 Z M 591.285156 499.933594 C 591.285156 498.695312 591.222656 497.464844 591.101562 496.234375 C 590.980469 495.003906 590.800781 493.785156 590.558594 492.570312 C 590.316406 491.359375 590.019531 490.164062 589.660156 488.980469 C 589.300781 487.800781 588.882812 486.636719 588.410156 485.496094 C 587.9375 484.355469 587.410156 483.238281 586.828125 482.148438 C 586.246094 481.058594 585.609375 480 584.921875 478.972656 C 584.238281 477.945312 583.5 476.957031 582.71875 476 C 581.933594 475.046875 581.105469 474.132812 580.230469 473.257812 C 579.355469 472.382812 578.441406 471.554688 577.484375 470.769531 C 576.53125 469.988281 575.539062 469.253906 574.511719 468.566406 C 573.480469 467.878906 572.421875 467.246094 571.332031 466.664062 C 570.242188 466.082031 569.125 465.554688 567.984375 465.082031 C 566.84375 464.605469 565.679688 464.191406 564.496094 463.832031 C 563.3125 463.472656 562.117188 463.175781 560.902344 462.933594 C 559.691406 462.691406 558.46875 462.511719 557.238281 462.390625 C 556.011719 462.269531 554.777344 462.207031 553.539062 462.207031 L 49.789062 462.207031 C 48.554688 462.207031 47.320312 462.269531 46.089844 462.390625 C 44.859375 462.511719 43.640625 462.691406 42.425781 462.933594 C 41.214844 463.175781 40.015625 463.472656 38.835938 463.832031 C 37.652344 464.191406 36.488281 464.609375 35.347656 465.082031 C 34.203125 465.554688 33.089844 466.082031 32 466.664062 C 30.910156 467.246094 29.847656 467.878906 28.820312 468.566406 C 27.792969 469.253906 26.800781 469.988281 25.847656 470.769531 C 24.890625 471.554688 23.976562 472.382812 23.101562 473.257812 C 22.226562 474.132812 21.398438 475.046875 20.613281 476 C 19.832031 476.957031 19.09375 477.945312 18.40625 478.972656 C 17.722656 480 17.085938 481.058594 16.503906 482.148438 C 15.921875 483.238281 15.394531 484.355469 14.921875 485.496094 C 14.445312 486.636719 14.03125 487.800781 13.671875 488.980469 C 13.3125 490.164062 13.011719 491.359375 12.773438 492.574219 C 12.53125 493.785156 12.351562 495.003906 12.230469 496.234375 C 12.109375 497.464844 12.046875 498.695312 12.046875 499.933594 C 12.046875 501.167969 12.109375 502.398438 12.230469 503.628906 C 12.351562 504.859375 12.53125 506.078125 12.773438 507.292969 C 13.011719 508.503906 13.3125 509.699219 13.671875 510.882812 C 14.03125 512.0625 14.445312 513.226562 14.921875 514.367188 C 15.394531 515.507812 15.921875 516.625 16.503906 517.714844 C 17.085938 518.804688 17.722656 519.863281 18.40625 520.890625 C 19.09375 521.917969 19.832031 522.90625 20.613281 523.863281 C 21.398438 524.816406 22.226562 525.730469 23.101562 526.605469 C 23.976562 527.480469 24.890625 528.308594 25.847656 529.09375 C 26.800781 529.875 27.792969 530.609375 28.820312 531.296875 C 29.847656 531.984375 30.910156 532.617188 32 533.199219 C 33.089844 533.78125 34.203125 534.308594 35.347656 534.78125 C 36.488281 535.257812 37.652344 535.671875 38.835938 536.03125 C 40.015625 536.390625 41.214844 536.6875 42.425781 536.929688 C 43.640625 537.171875 44.859375 537.351562 46.089844 537.472656 C 47.320312 537.59375 48.554688 537.65625 49.789062 537.65625 L 553.039062 537.65625 C 554.316406 537.671875 555.59375 537.625 556.867188 537.515625 C 558.140625 537.402344 559.40625 537.226562 560.660156 536.988281 C 561.917969 536.746094 563.160156 536.445312 564.382812 536.078125 C 565.609375 535.710938 566.8125 535.285156 567.996094 534.796875 C 569.175781 534.308594 570.332031 533.757812 571.457031 533.152344 C 572.582031 532.546875 573.675781 531.886719 574.734375 531.171875 C 575.792969 530.453125 576.8125 529.683594 577.792969 528.863281 C 578.773438 528.042969 579.710938 527.175781 580.605469 526.261719 C 581.496094 525.34375 582.339844 524.386719 583.136719 523.386719 C 583.929688 522.382812 584.671875 521.347656 585.363281 520.269531 C 586.050781 519.191406 586.683594 518.082031 587.261719 516.941406 C 587.835938 515.800781 588.355469 514.632812 588.8125 513.441406 C 589.269531 512.246094 589.667969 511.035156 590 509.800781 C 590.335938 508.566406 590.605469 507.320312 590.8125 506.058594 C 591.023438 504.796875 591.164062 503.527344 591.242188 502.253906 C 591.320312 500.976562 591.335938 499.699219 591.285156 498.421875 Z M 591.285156 499.933594 " fill-opacity="1" fill-rule="nonzero"/></g></svg>