<?xml version="1.0" encoding="UTF-8"?>
<svg class="" width="512" height="512" enable-background="new 0 0 512 512" version="1.1" viewBox="0 0 507.2 507.2" xml:space="preserve" xmlns="http://www.w3.org/2000/svg">
<circle class="" cx="253.6" cy="253.6" r="253.6" fill="#32ba7c" style="" data-original="#32ba7c" xmlns="http://www.w3.org/2000/svg"/>
<path class="" d="m188.8 368l130.4 130.4c108-28.8 188-127.2 188-244.8v-7.2l-102.4-94.4-216 216z" fill="#0aa06e" style="" data-original="#0aa06e" xmlns="http://www.w3.org/2000/svg"/>
<g fill="#fff" xmlns="http://www.w3.org/2000/svg">
	<path class="" d="M260,310.4c11.2,11.2,11.2,30.4,0,41.6l-23.2,23.2c-11.2,11.2-30.4,11.2-41.6,0L93.6,272.8   c-11.2-11.2-11.2-30.4,0-41.6l23.2-23.2c11.2-11.2,30.4-11.2,41.6,0L260,310.4z" style="" data-original="#ffffff"/>
	<path class="" d="m348.8 133.6c11.2-11.2 30.4-11.2 41.6 0l23.2 23.2c11.2 11.2 11.2 30.4 0 41.6l-176 175.2c-11.2 11.2-30.4 11.2-41.6 0l-23.2-23.2c-11.2-11.2-11.2-30.4 0-41.6l176-175.2z" style="" data-original="#ffffff"/>
</g>
</svg>
