<svg width="128" height="128" xmlns="http://www.w3.org/2000/svg" data-name="Layer 1">

 <title>x</title>
 <g>
  <title>Layer 1</title>
  <path id="svg_1" fill="#606770" d="m125.751,80.22166a23.99967,23.99967 0 0 1 -5.05438,14.8196a0.38055,0.38055 0 0 1 -0.02929,0.03994a24.16809,24.16809 0 0 1 -19.1736,9.39774l-28.1213,0l-1.8215,-19.32006l8.01562,0a2.50779,2.50779 0 0 0 2.03187,-3.97321l-15.58919,-21.57296a2.48608,2.48608 0 0 0 -4.04243,0l-15.5892,21.57295a2.50113,2.50113 0 0 0 2.03185,3.97321l8.01565,0l-1.8215,19.32006l-28.09465,0a24.26252,24.26252 0 0 1 -5.40055,-47.91a37.33234,37.33234 0 0 1 1.89072,-7.97567a37.692,37.692 0 0 1 56.43163,-18.73692a37.03485,37.03485 0 0 1 4.53508,3.55511a37.58957,37.58957 0 0 1 11.87964,22.55029l5.64823,0a24.28776,24.28776 0 0 1 24.2573,24.25992z" class="cls-1"/>
 </g>
</svg>