<svg xmlns="http://www.w3.org/2000/svg" xmlns:xlink="http://www.w3.org/1999/xlink" width="800" zoomAndPan="magnify" viewBox="0 0 600 599.999999" height="800" preserveAspectRatio="xMidYMid meet" version="1.0"><path fill="#ffffff" d="M 300 0 C 134.578125 0 0 134.578125 0 300 C 0 465.421875 134.578125 600 300 600 C 465.421875 600 600 465.421875 600 300 C 600 134.578125 465.421875 0 300 0 Z M 489.816406 477.410156 C 450.683594 410.566406 378.941406 368.679688 299.988281 368.679688 C 221.054688 368.679688 149.320312 410.566406 110.183594 477.414062 C 66.699219 430.921875 40 368.535156 40 300 C 40 156.636719 156.636719 40 300 40 C 443.363281 40 560 156.636719 560 300 C 560 368.535156 533.300781 430.921875 489.816406 477.410156 Z M 489.816406 477.410156 " fill-opacity="1" fill-rule="nonzero"/><path fill="#ffffff" d="M 300 88.683594 C 232.570312 88.683594 177.703125 143.546875 177.703125 210.980469 C 177.703125 278.414062 232.570312 333.28125 300 333.28125 C 367.433594 333.28125 422.300781 278.414062 422.300781 210.980469 C 422.300781 143.546875 367.433594 88.683594 300 88.683594 Z M 300 88.683594 " fill-opacity="1" fill-rule="nonzero"/></svg>